<svg width="160" height="65" viewBox="0 0 160 65" fill="none" xmlns="http://www.w3.org/2000/svg">
<path d="M29.0566 33.2773H21.0293V30.7188H29.0566V33.2773ZM30.1895 27.5352H20.0137V39H17.4746V26.2754C17.4746 26.0996 17.5072 25.9336 17.5723 25.7773C17.6374 25.6211 17.7253 25.4844 17.8359 25.3672C17.9531 25.25 18.0898 25.1589 18.2461 25.0938C18.4023 25.0286 18.5716 24.9961 18.7539 24.9961H30.1895V27.5352ZM46.2344 29.7031C46.2344 30.2826 46.1628 30.8001 46.0195 31.2559C45.8763 31.7116 45.681 32.1152 45.4336 32.4668C45.1927 32.8118 44.9128 33.1081 44.5938 33.3555C44.2747 33.6029 43.9395 33.8079 43.5879 33.9707C43.2428 34.127 42.8913 34.2409 42.5332 34.3125C42.1816 34.3841 41.8496 34.4199 41.5371 34.4199L46.8398 39H42.9141L37.6211 34.4199H35.7949V31.8809H41.5371C41.8561 31.8548 42.1458 31.7897 42.4062 31.6855C42.6732 31.5749 42.901 31.4284 43.0898 31.2461C43.2852 31.0638 43.4349 30.8457 43.5391 30.5918C43.6432 30.3314 43.6953 30.0352 43.6953 29.7031V28.1016C43.6953 27.9583 43.6758 27.8509 43.6367 27.7793C43.6042 27.7012 43.5586 27.6458 43.5 27.6133C43.4479 27.5742 43.3893 27.5514 43.3242 27.5449C43.2656 27.5384 43.2103 27.5352 43.1582 27.5352H34.7793V39H32.2402V26.2754C32.2402 26.0996 32.2728 25.9336 32.3379 25.7773C32.403 25.6211 32.4909 25.4844 32.6016 25.3672C32.7188 25.25 32.8555 25.1589 33.0117 25.0938C33.168 25.0286 33.3372 24.9961 33.5195 24.9961H43.1582C43.7246 24.9961 44.2031 25.1003 44.5938 25.3086C44.9844 25.5104 45.3001 25.7676 45.541 26.0801C45.7884 26.3861 45.9642 26.7181 46.0684 27.0762C46.179 27.4342 46.2344 27.7695 46.2344 28.082V29.7031ZM63.4805 33.3359C63.4805 34.1888 63.334 34.9733 63.041 35.6895C62.748 36.4056 62.3411 37.0241 61.8203 37.5449C61.2995 38.0658 60.681 38.4727 59.9648 38.7656C59.2552 39.0521 58.4805 39.1953 57.6406 39.1953H54.2031C53.3633 39.1953 52.5853 39.0521 51.8691 38.7656C51.153 38.4727 50.5345 38.0658 50.0137 37.5449C49.4928 37.0241 49.0827 36.4056 48.7832 35.6895C48.4902 34.9733 48.3438 34.1888 48.3438 33.3359V30.6602C48.3438 29.8138 48.4902 29.0326 48.7832 28.3164C49.0827 27.5938 49.4928 26.9753 50.0137 26.4609C50.5345 25.9401 51.153 25.5332 51.8691 25.2402C52.5853 24.9473 53.3633 24.8008 54.2031 24.8008H57.6406C58.4805 24.8008 59.2552 24.9473 59.9648 25.2402C60.681 25.5332 61.2995 25.9401 61.8203 26.4609C62.3411 26.9753 62.748 27.5938 63.041 28.3164C63.334 29.0326 63.4805 29.8138 63.4805 30.6602V33.3359ZM60.9414 30.6602C60.9414 30.1589 60.86 29.7064 60.6973 29.3027C60.541 28.8926 60.3164 28.5443 60.0234 28.2578C59.737 27.9648 59.3887 27.7402 58.9785 27.584C58.5749 27.4212 58.1289 27.3398 57.6406 27.3398H54.2031C53.7083 27.3398 53.2559 27.4212 52.8457 27.584C52.4421 27.7402 52.0938 27.9648 51.8008 28.2578C51.5078 28.5443 51.2799 28.8926 51.1172 29.3027C50.9609 29.7064 50.8828 30.1589 50.8828 30.6602V33.3359C50.8828 33.8372 50.9609 34.293 51.1172 34.7031C51.2799 35.1068 51.5078 35.4551 51.8008 35.748C52.0938 36.0345 52.4421 36.2591 52.8457 36.4219C53.2559 36.5781 53.7083 36.6562 54.2031 36.6562H57.6211C58.1159 36.6562 58.5651 36.5781 58.9688 36.4219C59.3789 36.2591 59.7305 36.0345 60.0234 35.748C60.3164 35.4551 60.541 35.1068 60.6973 34.7031C60.86 34.293 60.9414 33.8372 60.9414 33.3359V30.6602ZM79.9844 37.916C79.9844 38.0983 79.9486 38.2676 79.877 38.4238C79.8118 38.5801 79.7207 38.7168 79.6035 38.834C79.4928 38.9447 79.3594 39.0326 79.2031 39.0977C79.0469 39.1628 78.8809 39.1953 78.7051 39.1953C78.5488 39.1953 78.3893 39.166 78.2266 39.1074C78.0703 39.0488 77.9303 38.9544 77.8066 38.8242L68.5293 29.1367V39H65.9902V26.0801C65.9902 25.8197 66.0618 25.5853 66.2051 25.377C66.3548 25.1621 66.5436 25.0026 66.7715 24.8984C67.0124 24.8008 67.2598 24.778 67.5137 24.8301C67.7676 24.8757 67.9857 24.9928 68.168 25.1816L77.4453 34.8594V24.9961H79.9844V37.916ZM95.5996 27.5352H90.0039V39H87.4648V27.5352H81.8594V24.9961H95.5996V27.5352ZM108.988 33.2773H100.971V30.7188H108.988V33.2773ZM110.131 39H100.971C100.619 39 100.235 38.9382 99.8184 38.8145C99.4017 38.6908 99.0143 38.4889 98.6562 38.209C98.3047 37.9225 98.0085 37.5547 97.7676 37.1055C97.5332 36.6497 97.416 36.0931 97.416 35.4355V26.2754C97.416 26.0996 97.4486 25.9336 97.5137 25.7773C97.5788 25.6211 97.6667 25.4844 97.7773 25.3672C97.8945 25.25 98.0312 25.1589 98.1875 25.0938C98.3438 25.0286 98.513 24.9961 98.6953 24.9961H110.131V27.5352H99.9551V35.4355C99.9551 35.7676 100.043 36.0215 100.219 36.1973C100.395 36.373 100.652 36.4609 100.99 36.4609H110.131V39ZM126.586 37.916C126.586 38.0983 126.55 38.2676 126.479 38.4238C126.413 38.5801 126.322 38.7168 126.205 38.834C126.094 38.9447 125.961 39.0326 125.805 39.0977C125.648 39.1628 125.482 39.1953 125.307 39.1953C125.15 39.1953 124.991 39.166 124.828 39.1074C124.672 39.0488 124.532 38.9544 124.408 38.8242L115.131 29.1367V39H112.592V26.0801C112.592 25.8197 112.663 25.5853 112.807 25.377C112.956 25.1621 113.145 25.0026 113.373 24.8984C113.614 24.8008 113.861 24.778 114.115 24.8301C114.369 24.8757 114.587 24.9928 114.77 25.1816L124.047 34.8594V24.9961H126.586V37.916ZM143.52 33.1406C143.52 33.9935 143.37 34.778 143.07 35.4941C142.777 36.2103 142.37 36.8288 141.85 37.3496C141.329 37.8639 140.71 38.2676 139.994 38.5605C139.278 38.8535 138.5 39 137.66 39H130.805C130.622 39 130.453 38.9674 130.297 38.9023C130.141 38.8372 130.004 38.7493 129.887 38.6387C129.776 38.5215 129.688 38.3848 129.623 38.2285C129.558 38.0723 129.525 37.903 129.525 37.7207V26.2754C129.525 26.0996 129.558 25.9336 129.623 25.7773C129.688 25.6211 129.776 25.4844 129.887 25.3672C130.004 25.25 130.141 25.1589 130.297 25.0938C130.453 25.0286 130.622 24.9961 130.805 24.9961H137.66C138.5 24.9961 139.278 25.1426 139.994 25.4355C140.71 25.7285 141.329 26.1354 141.85 26.6562C142.37 27.1706 142.777 27.7891 143.07 28.5117C143.37 29.2279 143.52 30.0091 143.52 30.8555V33.1406ZM140.98 30.8555C140.98 30.3607 140.899 29.9082 140.736 29.498C140.58 29.0879 140.355 28.7396 140.062 28.4531C139.77 28.1602 139.418 27.9355 139.008 27.7793C138.604 27.6165 138.155 27.5352 137.66 27.5352H132.064V36.4609H137.66C138.155 36.4609 138.604 36.3828 139.008 36.2266C139.418 36.0638 139.77 35.8392 140.062 35.5527C140.355 35.2598 140.58 34.9115 140.736 34.5078C140.899 34.0977 140.98 33.6419 140.98 33.1406V30.8555Z" fill="#E02727"/>
<path d="M3.84412 12.4498C4.54305 17.6707 5.24198 18.8755 5.24198 24.0964C5.24198 27.3092 0 30.1205 0 30.1205V34.1365C0 34.1365 5.24198 36.9478 5.24198 40.1606C5.24198 45.3815 4.54305 46.5863 3.84412 51.8072C2.79572 60.241 6.63984 64.257 10.1345 64.257C13.6291 64.257 17.4733 64.257 17.4733 64.257V56.2249C17.4733 56.2249 11.1829 57.0281 11.1829 52.2088C11.1829 48.5944 11.8818 48.5944 12.5808 40.5622C12.9302 36.9478 10.8334 34.1365 8.73663 32.1285C10.8334 30.1205 12.9302 27.7108 12.5808 24.0964C11.5324 16.0643 11.1829 16.0643 11.1829 12.4498C11.1829 7.63052 17.4733 8.03213 17.4733 8.03213V0C17.4733 0 13.9786 0 10.1345 0C6.29038 0 2.79572 4.01606 3.84412 12.4498V12.4498Z" fill="#06EEB8"/>
<path d="M156.156 12.4498C155.457 17.6707 154.758 18.8755 154.758 24.0964C154.758 27.3092 160 30.1205 160 30.1205V34.1365C160 34.1365 154.758 36.9478 154.758 40.1606C154.758 45.3815 155.457 46.5863 156.156 51.8072C157.204 60.241 153.36 64.257 149.866 64.257C146.371 64.257 142.527 64.257 142.527 64.257V56.2249C142.527 56.2249 148.817 57.0281 148.817 52.2088C148.817 48.5944 148.118 48.5944 147.419 40.5622C147.07 36.9478 149.167 34.1365 151.263 32.1285C149.167 30.1205 147.07 27.7108 147.419 24.0964C148.118 16.0643 148.817 16.0643 148.817 12.4498C148.817 7.63052 142.527 8.03213 142.527 8.03213V0C142.527 0 146.021 0 149.866 0C153.71 0 157.204 4.01606 156.156 12.4498Z" fill="#06EEB8"/>
</svg>
